# xmcd
#
# Track frame offsets:
#	150
#	22201
#	40902
#	58858
#	76064
#	93833
#	107585
#	122452
#	137317
#	153786
#	172669
#	202068
#
# Disc length: 3212 seconds
#
# Revision: 1
# Processed by: cddbd v1.5.2PL0 Copyright (c) Steve Scherf et al.
# Submitted via: audiograbber 1.83.01
#
DISCID=8a0c8a0c
DTITLE=Various Artist - Old Navy Workout
DYEAR=1998
DGENRE=Dance
TTITLE0=Brand New Heavies - You Can Do It (Vission and Lorimer Mix)
TTITLE1=Todd Terry presents Martha Wash and Jocelyn Brown - Keep on Jumpin
TTITLE2=RuPaul - House of Love (12" Version) 
TTITLE3=CeCe Peniston - Somebody Else's Guy
TTITLE4=Adeva - Caught Up In A One Night Love Affair  (Dunn and Stingily's Soulfu
TTITLE4=l Vocal Mix)
TTITLE5=Mack Vibe feat. Jacqueline - Sky's The Limit (The New Mix Edit)
TTITLE6=Evolution - Everybody Dance (US Mix Edit)
TTITLE7=Pulse feat. The Voice of Antoinette Roberson - The Lover That You Are (
TTITLE7=Radio Mix)
TTITLE8=Gisele Jackson - Love Commandments (Original Edit)
TTITLE9=Sandy B - Make The World Go Round (Deep Dish Edit)
TTITLE10=Inner City - Good Life
TTITLE11=Alison Limerick - Love Come Down (Club Vocal Mix)
EXTD=
EXTT0=
EXTT1=
EXTT2=
EXTT3=
EXTT4=
EXTT5=
EXTT6=
EXTT7=
EXTT8=
EXTT9=
EXTT10=
EXTT11=
PLAYORDER=
